<?xml version="1.0" standalone="no"?>
<!DOCTYPE svg PUBLIC "-//W3C//DTD SVG 20010904//EN"
 "http://www.w3.org/TR/2001/REC-SVG-20010904/DTD/svg10.dtd">
<svg version="1.0" xmlns="http://www.w3.org/2000/svg"
 width="300.000000pt" height="300.000000pt" viewBox="0 0 300.000000 300.000000"
 preserveAspectRatio="xMidYMid meet">

<g transform="translate(0.000000,300.000000) scale(0.100000,-0.100000)"
fill="#000000" stroke="none">
<path d="M450 2990 c-193 -35 -356 -177 -422 -368 l-23 -67 0 -1055 0 -1055
23 -67 c63 -181 222 -326 399 -363 100 -21 2045 -22 2144 -1 95 20 178 66 259
143 56 52 79 84 110 147 21 45 43 108 49 140 15 84 15 2030 0 2112 -34 182
-170 340 -357 413 l-67 26 -1035 1 c-569 1 -1055 -2 -1080 -6z m1447 -928
l393 393 0 -648 0 -647 -180 0 -180 0 0 212 0 213 -208 -208 c-114 -114 -212
-207 -217 -207 -5 0 -103 93 -217 207 l-208 208 0 -390 0 -390 -180 -180 -180
-180 0 1005 0 1005 392 -393 393 -392 392 392z"/>
</g>
</svg>
